<svg width="1440" height="222" viewBox="0 0 1440 222" fill="none" xmlns="http://www.w3.org/2000/svg">
<path d="M0 84.053C0 84.053 161.113 18.5762 269.781 15.3627C381.039 12.0726 449.63 21.3229 549.372 70.7355C614.5 103 647.982 136.997 719.65 158.351C784.645 177.716 824.401 184.439 892.029 179.378C962.425 174.11 999.618 154.152 1065.81 129.613C1136.3 103.482 1154.08 93.612 1240.29 48.306C1326.5 3 1440 42.6986 1440 42.6986" stroke="#B28E6F" stroke-width="2" stroke-dasharray="10 10"/>
<circle cx="303" cy="16" r="15" fill="#2B414D" stroke="#B28E6F" stroke-width="2"/>
<path d="M258.872 63.216C258.236 63.216 257.636 63.114 257.072 62.91C256.508 62.694 256.016 62.382 255.596 61.974C255.188 61.566 254.864 61.062 254.624 60.462C254.384 59.85 254.264 59.142 254.264 58.338C254.264 57.558 254.39 56.862 254.642 56.25C254.894 55.626 255.236 55.104 255.668 54.684C256.1 54.252 256.604 53.928 257.18 53.712C257.756 53.484 258.368 53.37 259.016 53.37C259.628 53.37 260.186 53.49 260.69 53.73C261.194 53.97 261.614 54.258 261.95 54.594L260.816 55.854C260.552 55.614 260.282 55.428 260.006 55.296C259.73 55.164 259.406 55.098 259.034 55.098C258.266 55.098 257.63 55.38 257.126 55.944C256.634 56.496 256.388 57.27 256.388 58.266C256.388 59.31 256.616 60.108 257.072 60.66C257.54 61.212 258.17 61.488 258.962 61.488C259.394 61.488 259.772 61.41 260.096 61.254C260.42 61.098 260.714 60.888 260.978 60.624L262.112 61.848C261.272 62.76 260.192 63.216 258.872 63.216ZM264.087 63V53.586H266.175V57.222H269.955V53.586H272.043V63H269.955V59.022H266.175V63H264.087ZM278.98 63.216C278.308 63.216 277.69 63.102 277.126 62.874C276.574 62.646 276.094 62.322 275.686 61.902C275.29 61.47 274.978 60.948 274.75 60.336C274.534 59.724 274.426 59.028 274.426 58.248C274.426 57.48 274.534 56.796 274.75 56.196C274.978 55.584 275.29 55.068 275.686 54.648C276.094 54.228 276.574 53.91 277.126 53.694C277.69 53.478 278.308 53.37 278.98 53.37C279.64 53.37 280.246 53.484 280.798 53.712C281.362 53.928 281.842 54.246 282.238 54.666C282.646 55.074 282.958 55.584 283.174 56.196C283.402 56.796 283.516 57.48 283.516 58.248C283.516 59.028 283.402 59.724 283.174 60.336C282.958 60.948 282.646 61.47 282.238 61.902C281.842 62.322 281.362 62.646 280.798 62.874C280.246 63.102 279.64 63.216 278.98 63.216ZM278.98 61.488C279.712 61.488 280.294 61.2 280.726 60.624C281.158 60.048 281.374 59.256 281.374 58.248C281.374 57.252 281.158 56.478 280.726 55.926C280.294 55.374 279.712 55.098 278.98 55.098C278.224 55.098 277.63 55.374 277.198 55.926C276.778 56.478 276.568 57.252 276.568 58.248C276.568 59.256 276.778 60.048 277.198 60.624C277.63 61.2 278.224 61.488 278.98 61.488ZM289.826 63.216C289.154 63.216 288.536 63.102 287.972 62.874C287.42 62.646 286.94 62.322 286.532 61.902C286.136 61.47 285.824 60.948 285.596 60.336C285.38 59.724 285.272 59.028 285.272 58.248C285.272 57.48 285.38 56.796 285.596 56.196C285.824 55.584 286.136 55.068 286.532 54.648C286.94 54.228 287.42 53.91 287.972 53.694C288.536 53.478 289.154 53.37 289.826 53.37C290.486 53.37 291.092 53.484 291.644 53.712C292.208 53.928 292.688 54.246 293.084 54.666C293.492 55.074 293.804 55.584 294.02 56.196C294.248 56.796 294.362 57.48 294.362 58.248C294.362 59.028 294.248 59.724 294.02 60.336C293.804 60.948 293.492 61.47 293.084 61.902C292.688 62.322 292.208 62.646 291.644 62.874C291.092 63.102 290.486 63.216 289.826 63.216ZM289.826 61.488C290.558 61.488 291.14 61.2 291.572 60.624C292.004 60.048 292.22 59.256 292.22 58.248C292.22 57.252 292.004 56.478 291.572 55.926C291.14 55.374 290.558 55.098 289.826 55.098C289.07 55.098 288.476 55.374 288.044 55.926C287.624 56.478 287.414 57.252 287.414 58.248C287.414 59.256 287.624 60.048 288.044 60.624C288.476 61.2 289.07 61.488 289.826 61.488ZM299.717 63.216C298.961 63.216 298.253 63.09 297.593 62.838C296.945 62.586 296.387 62.262 295.919 61.866L296.963 60.462C297.383 60.81 297.827 61.086 298.295 61.29C298.775 61.494 299.279 61.596 299.807 61.596C300.299 61.596 300.671 61.494 300.923 61.29C301.175 61.086 301.301 60.822 301.301 60.498C301.301 60.138 301.175 59.874 300.923 59.706C300.671 59.526 300.353 59.358 299.969 59.202L298.871 58.77C298.547 58.65 298.241 58.512 297.953 58.356C297.665 58.2 297.407 58.02 297.179 57.816C296.963 57.6 296.789 57.36 296.657 57.096C296.525 56.82 296.459 56.502 296.459 56.142C296.459 55.722 296.543 55.344 296.711 55.008C296.879 54.66 297.113 54.366 297.413 54.126C297.725 53.874 298.097 53.682 298.529 53.55C298.961 53.418 299.435 53.352 299.951 53.352C300.683 53.352 301.319 53.472 301.859 53.712C302.399 53.952 302.861 54.228 303.245 54.54L302.201 55.872C301.877 55.62 301.517 55.41 301.121 55.242C300.737 55.074 300.335 54.99 299.915 54.99C299.483 54.99 299.141 55.08 298.889 55.26C298.649 55.44 298.529 55.698 298.529 56.034C298.529 56.322 298.649 56.55 298.889 56.718C299.129 56.886 299.459 57.054 299.879 57.222L300.959 57.618C301.307 57.75 301.625 57.888 301.913 58.032C302.213 58.176 302.471 58.35 302.687 58.554C302.903 58.758 303.071 59.004 303.191 59.292C303.323 59.568 303.389 59.91 303.389 60.318C303.389 60.738 303.305 61.122 303.137 61.47C302.969 61.818 302.729 62.124 302.417 62.388C302.105 62.652 301.721 62.856 301.265 63C300.809 63.144 300.293 63.216 299.717 63.216ZM305.536 63V53.586H311.71V55.206H307.624V57.384H311.116V58.914H307.624V61.38H311.89V63H305.536ZM317.911 63V53.586H324.121V55.296H319.999V57.69H323.527V59.274H319.999V63H317.911ZM330.132 63.216C329.46 63.216 328.842 63.102 328.278 62.874C327.726 62.646 327.246 62.322 326.838 61.902C326.442 61.47 326.13 60.948 325.902 60.336C325.686 59.724 325.578 59.028 325.578 58.248C325.578 57.48 325.686 56.796 325.902 56.196C326.13 55.584 326.442 55.068 326.838 54.648C327.246 54.228 327.726 53.91 328.278 53.694C328.842 53.478 329.46 53.37 330.132 53.37C330.792 53.37 331.398 53.484 331.95 53.712C332.514 53.928 332.994 54.246 333.39 54.666C333.798 55.074 334.11 55.584 334.326 56.196C334.554 56.796 334.668 57.48 334.668 58.248C334.668 59.028 334.554 59.724 334.326 60.336C334.11 60.948 333.798 61.47 333.39 61.902C332.994 62.322 332.514 62.646 331.95 62.874C331.398 63.102 330.792 63.216 330.132 63.216ZM330.132 61.488C330.864 61.488 331.446 61.2 331.878 60.624C332.31 60.048 332.526 59.256 332.526 58.248C332.526 57.252 332.31 56.478 331.878 55.926C331.446 55.374 330.864 55.098 330.132 55.098C329.376 55.098 328.782 55.374 328.35 55.926C327.93 56.478 327.72 57.252 327.72 58.248C327.72 59.256 327.93 60.048 328.35 60.624C328.782 61.2 329.376 61.488 330.132 61.488ZM340.978 63.216C340.306 63.216 339.688 63.102 339.124 62.874C338.572 62.646 338.092 62.322 337.684 61.902C337.288 61.47 336.976 60.948 336.748 60.336C336.532 59.724 336.424 59.028 336.424 58.248C336.424 57.48 336.532 56.796 336.748 56.196C336.976 55.584 337.288 55.068 337.684 54.648C338.092 54.228 338.572 53.91 339.124 53.694C339.688 53.478 340.306 53.37 340.978 53.37C341.638 53.37 342.244 53.484 342.796 53.712C343.36 53.928 343.84 54.246 344.236 54.666C344.644 55.074 344.956 55.584 345.172 56.196C345.4 56.796 345.514 57.48 345.514 58.248C345.514 59.028 345.4 59.724 345.172 60.336C344.956 60.948 344.644 61.47 344.236 61.902C343.84 62.322 343.36 62.646 342.796 62.874C342.244 63.102 341.638 63.216 340.978 63.216ZM340.978 61.488C341.71 61.488 342.292 61.2 342.724 60.624C343.156 60.048 343.372 59.256 343.372 58.248C343.372 57.252 343.156 56.478 342.724 55.926C342.292 55.374 341.71 55.098 340.978 55.098C340.222 55.098 339.628 55.374 339.196 55.926C338.776 56.478 338.566 57.252 338.566 58.248C338.566 59.256 338.776 60.048 339.196 60.624C339.628 61.2 340.222 61.488 340.978 61.488ZM347.882 63V53.586H350.672C351.44 53.586 352.13 53.676 352.742 53.856C353.366 54.036 353.9 54.318 354.344 54.702C354.788 55.086 355.13 55.572 355.37 56.16C355.61 56.748 355.73 57.444 355.73 58.248C355.73 59.064 355.61 59.772 355.37 60.372C355.13 60.96 354.794 61.452 354.362 61.848C353.93 62.232 353.408 62.52 352.796 62.712C352.196 62.904 351.53 63 350.798 63H347.882ZM349.97 61.38H350.762C351.698 61.38 352.4 61.128 352.868 60.624C353.348 60.108 353.588 59.316 353.588 58.248C353.588 56.22 352.646 55.206 350.762 55.206H349.97V61.38ZM273.727 81V77.616L270.721 71.586H272.917L273.889 73.782C274.021 74.13 274.159 74.472 274.303 74.808C274.447 75.144 274.597 75.492 274.753 75.852H274.825C274.969 75.492 275.113 75.144 275.257 74.808C275.401 74.472 275.545 74.13 275.689 73.782L276.661 71.586H278.821L275.815 77.616V81H273.727ZM283.823 81.216C283.151 81.216 282.533 81.102 281.969 80.874C281.417 80.646 280.937 80.322 280.529 79.902C280.133 79.47 279.821 78.948 279.593 78.336C279.377 77.724 279.269 77.028 279.269 76.248C279.269 75.48 279.377 74.796 279.593 74.196C279.821 73.584 280.133 73.068 280.529 72.648C280.937 72.228 281.417 71.91 281.969 71.694C282.533 71.478 283.151 71.37 283.823 71.37C284.483 71.37 285.089 71.484 285.641 71.712C286.205 71.928 286.685 72.246 287.081 72.666C287.489 73.074 287.801 73.584 288.017 74.196C288.245 74.796 288.359 75.48 288.359 76.248C288.359 77.028 288.245 77.724 288.017 78.336C287.801 78.948 287.489 79.47 287.081 79.902C286.685 80.322 286.205 80.646 285.641 80.874C285.089 81.102 284.483 81.216 283.823 81.216ZM283.823 79.488C284.555 79.488 285.137 79.2 285.569 78.624C286.001 78.048 286.217 77.256 286.217 76.248C286.217 75.252 286.001 74.478 285.569 73.926C285.137 73.374 284.555 73.098 283.823 73.098C283.067 73.098 282.473 73.374 282.041 73.926C281.621 74.478 281.411 75.252 281.411 76.248C281.411 77.256 281.621 78.048 282.041 78.624C282.473 79.2 283.067 79.488 283.823 79.488ZM294.614 81.216C294.002 81.216 293.45 81.138 292.958 80.982C292.478 80.826 292.064 80.574 291.716 80.226C291.38 79.878 291.122 79.428 290.942 78.876C290.762 78.324 290.672 77.652 290.672 76.86V71.586H292.742V76.932C292.742 77.892 292.91 78.558 293.246 78.93C293.582 79.302 294.044 79.488 294.632 79.488C295.22 79.488 295.682 79.302 296.018 78.93C296.354 78.558 296.522 77.892 296.522 76.932V71.586H298.502V76.86C298.502 77.652 298.412 78.324 298.232 78.876C298.052 79.428 297.794 79.878 297.458 80.226C297.134 80.574 296.732 80.826 296.252 80.982C295.772 81.138 295.226 81.216 294.614 81.216ZM305.035 81V71.586H307.123V79.29H311.137V81H305.035ZM316.747 81.216C316.075 81.216 315.457 81.102 314.893 80.874C314.341 80.646 313.861 80.322 313.453 79.902C313.057 79.47 312.745 78.948 312.517 78.336C312.301 77.724 312.193 77.028 312.193 76.248C312.193 75.48 312.301 74.796 312.517 74.196C312.745 73.584 313.057 73.068 313.453 72.648C313.861 72.228 314.341 71.91 314.893 71.694C315.457 71.478 316.075 71.37 316.747 71.37C317.407 71.37 318.013 71.484 318.565 71.712C319.129 71.928 319.609 72.246 320.005 72.666C320.413 73.074 320.725 73.584 320.941 74.196C321.169 74.796 321.283 75.48 321.283 76.248C321.283 77.028 321.169 77.724 320.941 78.336C320.725 78.948 320.413 79.47 320.005 79.902C319.609 80.322 319.129 80.646 318.565 80.874C318.013 81.102 317.407 81.216 316.747 81.216ZM316.747 79.488C317.479 79.488 318.061 79.2 318.493 78.624C318.925 78.048 319.141 77.256 319.141 76.248C319.141 75.252 318.925 74.478 318.493 73.926C318.061 73.374 317.479 73.098 316.747 73.098C315.991 73.098 315.397 73.374 314.965 73.926C314.545 74.478 314.335 75.252 314.335 76.248C314.335 77.256 314.545 78.048 314.965 78.624C315.397 79.2 315.991 79.488 316.747 79.488ZM324.986 81L321.926 71.586H324.104L325.4 76.05C325.544 76.59 325.682 77.1 325.814 77.58C325.946 78.048 326.09 78.552 326.246 79.092H326.318C326.486 78.552 326.63 78.048 326.75 77.58C326.87 77.1 327.002 76.59 327.146 76.05L328.424 71.586H330.512L327.452 81H324.986ZM331.93 81V71.586H338.104V73.206H334.018V75.384H337.51V76.914H334.018V79.38H338.284V81H331.93Z" fill="#0D2949"/>
<path d="M551.644 80C556.154 79.78 559.014 79.78 563.524 80L562.864 75.446H562.688C562.424 77.734 559.366 77.448 552.942 77.47C553.316 74.544 563.48 74.148 563.48 68.736C563.48 65.832 560.73 64.16 557.628 64.16C553.668 64.16 551.71 66.382 551.71 68.538C551.71 70.43 552.942 71.662 554.504 71.662C556.286 71.662 556.792 70.254 556.572 69.264C555.076 69.418 554.306 68.384 554.306 67.13C554.306 65.854 555.362 64.534 557.254 64.534C558.948 64.534 560.4 65.832 560.4 67.57C560.4 73.356 551.644 73.158 551.644 80Z" fill="white"/>
<path d="M515.839 20V10.586H519.367C519.919 10.586 520.429 10.64 520.897 10.748C521.377 10.844 521.791 11.012 522.139 11.252C522.487 11.48 522.763 11.786 522.967 12.17C523.171 12.554 523.273 13.028 523.273 13.592C523.273 14.144 523.171 14.618 522.967 15.014C522.763 15.41 522.481 15.734 522.121 15.986C521.773 16.238 521.359 16.424 520.879 16.544C520.411 16.664 519.907 16.724 519.367 16.724H517.927V20H515.839ZM517.927 15.284H519.277C520.609 15.284 521.275 14.756 521.275 13.7C521.275 13.16 521.107 12.782 520.771 12.566C520.435 12.338 519.925 12.224 519.241 12.224H517.927V15.284ZM525.472 20V10.586H527.56V18.29H531.574V20H525.472ZM535.907 15.176L535.601 16.202H537.905L537.599 15.176C537.455 14.684 537.317 14.186 537.185 13.682C537.053 13.166 536.915 12.662 536.771 12.17H536.699C536.567 12.674 536.435 13.178 536.303 13.682C536.171 14.186 536.039 14.684 535.907 15.176ZM532.361 20L535.565 10.586H537.995L541.199 20H539.021L538.355 17.714H535.151L534.467 20H532.361ZM546.659 20.216C546.023 20.216 545.423 20.114 544.859 19.91C544.295 19.694 543.803 19.382 543.383 18.974C542.975 18.566 542.651 18.062 542.411 17.462C542.171 16.85 542.051 16.142 542.051 15.338C542.051 14.558 542.177 13.862 542.429 13.25C542.681 12.626 543.023 12.104 543.455 11.684C543.887 11.252 544.391 10.928 544.967 10.712C545.543 10.484 546.155 10.37 546.803 10.37C547.415 10.37 547.973 10.49 548.477 10.73C548.981 10.97 549.401 11.258 549.737 11.594L548.603 12.854C548.339 12.614 548.069 12.428 547.793 12.296C547.517 12.164 547.193 12.098 546.821 12.098C546.053 12.098 545.417 12.38 544.913 12.944C544.421 13.496 544.175 14.27 544.175 15.266C544.175 16.31 544.403 17.108 544.859 17.66C545.327 18.212 545.957 18.488 546.749 18.488C547.181 18.488 547.559 18.41 547.883 18.254C548.207 18.098 548.501 17.888 548.765 17.624L549.899 18.848C549.059 19.76 547.979 20.216 546.659 20.216ZM551.874 20V10.586H558.048V12.206H553.962V14.384H557.454V15.914H553.962V18.38H558.228V20H551.874ZM565.689 20V16.616L562.683 10.586H564.879L565.851 12.782C565.983 13.13 566.121 13.472 566.265 13.808C566.409 14.144 566.559 14.492 566.715 14.852H566.787C566.931 14.492 567.075 14.144 567.219 13.808C567.363 13.472 567.507 13.13 567.651 12.782L568.623 10.586H570.783L567.777 16.616V20H565.689ZM575.785 20.216C575.113 20.216 574.495 20.102 573.931 19.874C573.379 19.646 572.899 19.322 572.491 18.902C572.095 18.47 571.783 17.948 571.555 17.336C571.339 16.724 571.231 16.028 571.231 15.248C571.231 14.48 571.339 13.796 571.555 13.196C571.783 12.584 572.095 12.068 572.491 11.648C572.899 11.228 573.379 10.91 573.931 10.694C574.495 10.478 575.113 10.37 575.785 10.37C576.445 10.37 577.051 10.484 577.603 10.712C578.167 10.928 578.647 11.246 579.043 11.666C579.451 12.074 579.763 12.584 579.979 13.196C580.207 13.796 580.321 14.48 580.321 15.248C580.321 16.028 580.207 16.724 579.979 17.336C579.763 17.948 579.451 18.47 579.043 18.902C578.647 19.322 578.167 19.646 577.603 19.874C577.051 20.102 576.445 20.216 575.785 20.216ZM575.785 18.488C576.517 18.488 577.099 18.2 577.531 17.624C577.963 17.048 578.179 16.256 578.179 15.248C578.179 14.252 577.963 13.478 577.531 12.926C577.099 12.374 576.517 12.098 575.785 12.098C575.029 12.098 574.435 12.374 574.003 12.926C573.583 13.478 573.373 14.252 573.373 15.248C573.373 16.256 573.583 17.048 574.003 17.624C574.435 18.2 575.029 18.488 575.785 18.488ZM586.576 20.216C585.964 20.216 585.412 20.138 584.92 19.982C584.44 19.826 584.026 19.574 583.678 19.226C583.342 18.878 583.084 18.428 582.904 17.876C582.724 17.324 582.634 16.652 582.634 15.86V10.586H584.704V15.932C584.704 16.892 584.872 17.558 585.208 17.93C585.544 18.302 586.006 18.488 586.594 18.488C587.182 18.488 587.644 18.302 587.98 17.93C588.316 17.558 588.484 16.892 588.484 15.932V10.586H590.464V15.86C590.464 16.652 590.374 17.324 590.194 17.876C590.014 18.428 589.756 18.878 589.42 19.226C589.096 19.574 588.694 19.826 588.214 19.982C587.734 20.138 587.188 20.216 586.576 20.216ZM593.393 20V10.586H596.903C597.431 10.586 597.929 10.634 598.397 10.73C598.865 10.826 599.267 10.988 599.603 11.216C599.951 11.432 600.221 11.732 600.413 12.116C600.617 12.488 600.719 12.95 600.719 13.502C600.719 14.186 600.545 14.756 600.197 15.212C599.861 15.656 599.405 15.992 598.829 16.22L601.151 20H598.937L596.903 16.562H595.481V20H593.393ZM595.481 15.104H596.741C597.413 15.104 597.911 14.978 598.235 14.726C598.571 14.462 598.739 14.09 598.739 13.61C598.739 13.106 598.565 12.752 598.217 12.548C597.869 12.332 597.371 12.224 596.723 12.224H595.481V15.104ZM538.756 38.216C538.084 38.216 537.466 38.102 536.902 37.874C536.35 37.646 535.87 37.322 535.462 36.902C535.066 36.47 534.754 35.948 534.526 35.336C534.31 34.724 534.202 34.028 534.202 33.248C534.202 32.48 534.31 31.796 534.526 31.196C534.754 30.584 535.066 30.068 535.462 29.648C535.87 29.228 536.35 28.91 536.902 28.694C537.466 28.478 538.084 28.37 538.756 28.37C539.416 28.37 540.022 28.484 540.574 28.712C541.138 28.928 541.618 29.246 542.014 29.666C542.422 30.074 542.734 30.584 542.95 31.196C543.178 31.796 543.292 32.48 543.292 33.248C543.292 34.028 543.178 34.724 542.95 35.336C542.734 35.948 542.422 36.47 542.014 36.902C541.618 37.322 541.138 37.646 540.574 37.874C540.022 38.102 539.416 38.216 538.756 38.216ZM538.756 36.488C539.488 36.488 540.07 36.2 540.502 35.624C540.934 35.048 541.15 34.256 541.15 33.248C541.15 32.252 540.934 31.478 540.502 30.926C540.07 30.374 539.488 30.098 538.756 30.098C538 30.098 537.406 30.374 536.974 30.926C536.554 31.478 536.344 32.252 536.344 33.248C536.344 34.256 536.554 35.048 536.974 35.624C537.406 36.2 538 36.488 538.756 36.488ZM545.66 38V28.586H549.17C549.698 28.586 550.196 28.634 550.664 28.73C551.132 28.826 551.534 28.988 551.87 29.216C552.218 29.432 552.488 29.732 552.68 30.116C552.884 30.488 552.986 30.95 552.986 31.502C552.986 32.186 552.812 32.756 552.464 33.212C552.128 33.656 551.672 33.992 551.096 34.22L553.418 38H551.204L549.17 34.562H547.748V38H545.66ZM547.748 33.104H549.008C549.68 33.104 550.178 32.978 550.502 32.726C550.838 32.462 551.006 32.09 551.006 31.61C551.006 31.106 550.832 30.752 550.484 30.548C550.136 30.332 549.638 30.224 548.99 30.224H547.748V33.104ZM555.416 38V28.586H558.206C558.974 28.586 559.664 28.676 560.276 28.856C560.9 29.036 561.434 29.318 561.878 29.702C562.322 30.086 562.664 30.572 562.904 31.16C563.144 31.748 563.264 32.444 563.264 33.248C563.264 34.064 563.144 34.772 562.904 35.372C562.664 35.96 562.328 36.452 561.896 36.848C561.464 37.232 560.942 37.52 560.33 37.712C559.73 37.904 559.064 38 558.332 38H555.416ZM557.504 36.38H558.296C559.232 36.38 559.934 36.128 560.402 35.624C560.882 35.108 561.122 34.316 561.122 33.248C561.122 31.22 560.18 30.206 558.296 30.206H557.504V36.38ZM565.646 38V28.586H571.82V30.206H567.734V32.384H571.226V33.914H567.734V36.38H572V38H565.646ZM574.418 38V28.586H577.928C578.456 28.586 578.954 28.634 579.422 28.73C579.89 28.826 580.292 28.988 580.628 29.216C580.976 29.432 581.246 29.732 581.438 30.116C581.642 30.488 581.744 30.95 581.744 31.502C581.744 32.186 581.57 32.756 581.222 33.212C580.886 33.656 580.43 33.992 579.854 34.22L582.176 38H579.962L577.928 34.562H576.506V38H574.418ZM576.506 33.104H577.766C578.438 33.104 578.936 32.978 579.26 32.726C579.596 32.462 579.764 32.09 579.764 31.61C579.764 31.106 579.59 30.752 579.242 30.548C578.894 30.332 578.396 30.224 577.748 30.224H576.506V33.104Z" fill="#0D2949"/>
<path d="M711.389 162.286C715.019 162.264 718.473 160.614 718.473 156.676C718.473 152.188 713.237 151.11 710.465 152.254L715.899 148.25L715.877 148.206L718.011 146.6C713.501 146.82 710.773 146.82 706.263 146.6L706.923 151H707.099C707.275 149.416 708.551 148.932 711.169 148.954L714.183 148.976L708.639 153.068L708.925 153.398C711.653 151.814 715.305 153.09 715.305 157.402C715.305 160.746 713.501 161.89 711.653 161.89C709.981 161.89 708.265 160.966 708.265 159.382C708.265 158.282 708.881 157.908 709.497 157.908C709.717 156.918 709.299 155.686 707.693 155.686C706.527 155.686 705.537 156.61 705.537 158.062C705.537 160.218 707.957 162.308 711.389 162.286Z" fill="white"/>
<path d="M658.149 201L656.187 191.586H658.239L659.031 196.086C659.115 196.59 659.193 197.088 659.265 197.58C659.337 198.072 659.415 198.57 659.499 199.074H659.571C659.667 198.57 659.775 198.072 659.895 197.58C660.015 197.088 660.123 196.59 660.219 196.086L661.389 191.586H663.099L664.233 196.086C664.341 196.578 664.449 197.076 664.557 197.58C664.677 198.072 664.797 198.57 664.917 199.074H664.989C665.049 198.57 665.115 198.072 665.187 197.58C665.271 197.076 665.355 196.578 665.439 196.086L666.231 191.586H668.139L666.249 201H663.783L662.631 196.518C662.547 196.146 662.469 195.78 662.397 195.42C662.337 195.048 662.277 194.688 662.217 194.34H662.145C662.073 194.688 662.001 195.048 661.929 195.42C661.869 195.78 661.791 196.146 661.695 196.518L660.579 201H658.149ZM669.978 201V191.586H676.152V193.206H672.066V195.384H675.558V196.914H672.066V199.38H676.332V201H669.978ZM678.86 195.312L678.356 194.394C678.86 194.106 679.232 193.788 679.472 193.44C679.724 193.092 679.85 192.654 679.85 192.126C679.814 192.138 679.76 192.144 679.688 192.144C679.376 192.144 679.1 192.048 678.86 191.856C678.632 191.652 678.518 191.376 678.518 191.028C678.518 190.644 678.626 190.344 678.842 190.128C679.058 189.9 679.34 189.786 679.688 189.786C680.144 189.786 680.492 189.96 680.732 190.308C680.984 190.656 681.11 191.148 681.11 191.784C681.11 193.356 680.36 194.532 678.86 195.312ZM683.601 201V191.586H685.689V199.29H689.703V201H683.601ZM691.775 201V191.586H693.863V199.29H697.877V201H691.775ZM707.549 201.216C706.913 201.216 706.313 201.114 705.749 200.91C705.185 200.694 704.693 200.382 704.273 199.974C703.865 199.566 703.541 199.062 703.301 198.462C703.061 197.85 702.941 197.142 702.941 196.338C702.941 195.558 703.067 194.862 703.319 194.25C703.571 193.626 703.913 193.104 704.345 192.684C704.777 192.252 705.281 191.928 705.857 191.712C706.433 191.484 707.045 191.37 707.693 191.37C708.305 191.37 708.863 191.49 709.367 191.73C709.871 191.97 710.291 192.258 710.627 192.594L709.493 193.854C709.229 193.614 708.959 193.428 708.683 193.296C708.407 193.164 708.083 193.098 707.711 193.098C706.943 193.098 706.307 193.38 705.803 193.944C705.311 194.496 705.065 195.27 705.065 196.266C705.065 197.31 705.293 198.108 705.749 198.66C706.217 199.212 706.847 199.488 707.639 199.488C708.071 199.488 708.449 199.41 708.773 199.254C709.097 199.098 709.391 198.888 709.655 198.624L710.789 199.848C709.949 200.76 708.869 201.216 707.549 201.216ZM714.78 196.176L714.474 197.202H716.778L716.472 196.176C716.328 195.684 716.19 195.186 716.058 194.682C715.926 194.166 715.788 193.662 715.644 193.17H715.572C715.44 193.674 715.308 194.178 715.176 194.682C715.044 195.186 714.912 195.684 714.78 196.176ZM711.234 201L714.438 191.586H716.868L720.072 201H717.894L717.228 198.714H714.024L713.34 201H711.234ZM721.535 201V191.586H723.623V199.29H727.637V201H721.535ZM729.709 201V191.586H731.797V199.29H735.811V201H729.709ZM742.926 201V197.616L739.92 191.586H742.116L743.088 193.782C743.22 194.13 743.358 194.472 743.502 194.808C743.646 195.144 743.796 195.492 743.952 195.852H744.024C744.168 195.492 744.312 195.144 744.456 194.808C744.6 194.472 744.744 194.13 744.888 193.782L745.86 191.586H748.02L745.014 197.616V201H742.926ZM753.022 201.216C752.35 201.216 751.732 201.102 751.168 200.874C750.616 200.646 750.136 200.322 749.728 199.902C749.332 199.47 749.02 198.948 748.792 198.336C748.576 197.724 748.468 197.028 748.468 196.248C748.468 195.48 748.576 194.796 748.792 194.196C749.02 193.584 749.332 193.068 749.728 192.648C750.136 192.228 750.616 191.91 751.168 191.694C751.732 191.478 752.35 191.37 753.022 191.37C753.682 191.37 754.288 191.484 754.84 191.712C755.404 191.928 755.884 192.246 756.28 192.666C756.688 193.074 757 193.584 757.216 194.196C757.444 194.796 757.558 195.48 757.558 196.248C757.558 197.028 757.444 197.724 757.216 198.336C757 198.948 756.688 199.47 756.28 199.902C755.884 200.322 755.404 200.646 754.84 200.874C754.288 201.102 753.682 201.216 753.022 201.216ZM753.022 199.488C753.754 199.488 754.336 199.2 754.768 198.624C755.2 198.048 755.416 197.256 755.416 196.248C755.416 195.252 755.2 194.478 754.768 193.926C754.336 193.374 753.754 193.098 753.022 193.098C752.266 193.098 751.672 193.374 751.24 193.926C750.82 194.478 750.61 195.252 750.61 196.248C750.61 197.256 750.82 198.048 751.24 198.624C751.672 199.2 752.266 199.488 753.022 199.488ZM763.814 201.216C763.202 201.216 762.65 201.138 762.158 200.982C761.678 200.826 761.264 200.574 760.916 200.226C760.58 199.878 760.322 199.428 760.142 198.876C759.962 198.324 759.872 197.652 759.872 196.86V191.586H761.942V196.932C761.942 197.892 762.11 198.558 762.446 198.93C762.782 199.302 763.244 199.488 763.832 199.488C764.42 199.488 764.882 199.302 765.218 198.93C765.554 198.558 765.722 197.892 765.722 196.932V191.586H767.702V196.86C767.702 197.652 767.612 198.324 767.432 198.876C767.252 199.428 766.994 199.878 766.658 200.226C766.334 200.574 765.932 200.826 765.452 200.982C764.972 201.138 764.426 201.216 763.814 201.216ZM656.851 219.216C656.239 219.216 655.687 219.138 655.195 218.982C654.715 218.826 654.301 218.574 653.953 218.226C653.617 217.878 653.359 217.428 653.179 216.876C652.999 216.324 652.909 215.652 652.909 214.86V209.586H654.979V214.932C654.979 215.892 655.147 216.558 655.483 216.93C655.819 217.302 656.281 217.488 656.869 217.488C657.457 217.488 657.919 217.302 658.255 216.93C658.591 216.558 658.759 215.892 658.759 214.932V209.586H660.739V214.86C660.739 215.652 660.649 216.324 660.469 216.876C660.289 217.428 660.031 217.878 659.695 218.226C659.371 218.574 658.969 218.826 658.489 218.982C658.009 219.138 657.463 219.216 656.851 219.216ZM663.668 219V209.586H667.196C667.748 209.586 668.258 209.64 668.726 209.748C669.206 209.844 669.62 210.012 669.968 210.252C670.316 210.48 670.592 210.786 670.796 211.17C671 211.554 671.102 212.028 671.102 212.592C671.102 213.144 671 213.618 670.796 214.014C670.592 214.41 670.31 214.734 669.95 214.986C669.602 215.238 669.188 215.424 668.708 215.544C668.24 215.664 667.736 215.724 667.196 215.724H665.756V219H663.668ZM665.756 214.284H667.106C668.438 214.284 669.104 213.756 669.104 212.7C669.104 212.16 668.936 211.782 668.6 211.566C668.264 211.338 667.754 211.224 667.07 211.224H665.756V214.284ZM673.301 219V209.586H676.829C677.381 209.586 677.891 209.64 678.359 209.748C678.839 209.844 679.253 210.012 679.601 210.252C679.949 210.48 680.225 210.786 680.429 211.17C680.633 211.554 680.735 212.028 680.735 212.592C680.735 213.144 680.633 213.618 680.429 214.014C680.225 214.41 679.943 214.734 679.583 214.986C679.235 215.238 678.821 215.424 678.341 215.544C677.873 215.664 677.369 215.724 676.829 215.724H675.389V219H673.301ZM675.389 214.284H676.739C678.071 214.284 678.737 213.756 678.737 212.7C678.737 212.16 678.569 211.782 678.233 211.566C677.897 211.338 677.387 211.224 676.703 211.224H675.389V214.284ZM686.875 219.216C686.203 219.216 685.585 219.102 685.021 218.874C684.469 218.646 683.989 218.322 683.581 217.902C683.185 217.47 682.873 216.948 682.645 216.336C682.429 215.724 682.321 215.028 682.321 214.248C682.321 213.48 682.429 212.796 682.645 212.196C682.873 211.584 683.185 211.068 683.581 210.648C683.989 210.228 684.469 209.91 685.021 209.694C685.585 209.478 686.203 209.37 686.875 209.37C687.535 209.37 688.141 209.484 688.693 209.712C689.257 209.928 689.737 210.246 690.133 210.666C690.541 211.074 690.853 211.584 691.069 212.196C691.297 212.796 691.411 213.48 691.411 214.248C691.411 215.028 691.297 215.724 691.069 216.336C690.853 216.948 690.541 217.47 690.133 217.902C689.737 218.322 689.257 218.646 688.693 218.874C688.141 219.102 687.535 219.216 686.875 219.216ZM686.875 217.488C687.607 217.488 688.189 217.2 688.621 216.624C689.053 216.048 689.269 215.256 689.269 214.248C689.269 213.252 689.053 212.478 688.621 211.926C688.189 211.374 687.607 211.098 686.875 211.098C686.119 211.098 685.525 211.374 685.093 211.926C684.673 212.478 684.463 213.252 684.463 214.248C684.463 215.256 684.673 216.048 685.093 216.624C685.525 217.2 686.119 217.488 686.875 217.488ZM693.779 219V209.586H695.885L698.711 214.41L699.773 216.534H699.845C699.797 216.03 699.743 215.466 699.683 214.842C699.623 214.206 699.593 213.612 699.593 213.06V209.586H701.501V219H699.449L696.569 214.176L695.507 212.052H695.435C695.495 212.568 695.555 213.138 695.615 213.762C695.675 214.374 695.705 214.956 695.705 215.508V219H693.779ZM708.105 219V209.586H710.895C711.663 209.586 712.353 209.676 712.965 209.856C713.589 210.036 714.123 210.318 714.567 210.702C715.011 211.086 715.353 211.572 715.593 212.16C715.833 212.748 715.953 213.444 715.953 214.248C715.953 215.064 715.833 215.772 715.593 216.372C715.353 216.96 715.017 217.452 714.585 217.848C714.153 218.232 713.631 218.52 713.019 218.712C712.419 218.904 711.753 219 711.021 219H708.105ZM710.193 217.38H710.985C711.921 217.38 712.623 217.128 713.091 216.624C713.571 216.108 713.811 215.316 713.811 214.248C713.811 212.22 712.869 211.206 710.985 211.206H710.193V217.38ZM718.336 219V209.586H724.51V211.206H720.424V213.384H723.916V214.914H720.424V217.38H724.69V219H718.336ZM727.107 219V209.586H729.195V217.29H733.209V219H727.107ZM735.281 219V209.586H737.369V219H735.281ZM741.855 219L738.795 209.586H740.973L742.269 214.05C742.413 214.59 742.551 215.1 742.683 215.58C742.815 216.048 742.959 216.552 743.115 217.092H743.187C743.355 216.552 743.499 216.048 743.619 215.58C743.739 215.1 743.871 214.59 744.015 214.05L745.293 209.586H747.381L744.321 219H741.855ZM748.799 219V209.586H754.973V211.206H750.887V213.384H754.379V214.914H750.887V217.38H755.153V219H748.799ZM757.57 219V209.586H761.08C761.608 209.586 762.106 209.634 762.574 209.73C763.042 209.826 763.444 209.988 763.78 210.216C764.128 210.432 764.398 210.732 764.59 211.116C764.794 211.488 764.896 211.95 764.896 212.502C764.896 213.186 764.722 213.756 764.374 214.212C764.038 214.656 763.582 214.992 763.006 215.22L765.328 219H763.114L761.08 215.562H759.658V219H757.57ZM759.658 214.104H760.918C761.59 214.104 762.088 213.978 762.412 213.726C762.748 213.462 762.916 213.09 762.916 212.61C762.916 212.106 762.742 211.752 762.394 211.548C762.046 211.332 761.548 211.224 760.9 211.224H759.658V214.104ZM768.52 219V215.616L765.514 209.586H767.71L768.682 211.782C768.814 212.13 768.952 212.472 769.096 212.808C769.24 213.144 769.39 213.492 769.546 213.852H769.618C769.762 213.492 769.906 213.144 770.05 212.808C770.194 212.472 770.338 212.13 770.482 211.782L771.454 209.586H773.614L770.608 215.616V219H768.52Z" fill="#0D2949"/>
<path d="M1190.4 82.33C1194.2 82.308 1197.33 80.372 1197.33 76.72C1197.33 70.626 1188.92 70.736 1186.72 72.584L1186.92 68.866C1187.93 68.228 1197.06 71.682 1195.92 66.182C1193.06 67.392 1188.84 66.952 1186.55 66.512L1186.13 73.53C1189.25 71.132 1194.16 72.496 1194.16 77.292C1194.16 80.284 1192.64 82 1190.57 82C1188.62 82 1187.03 80.526 1187.03 79.096C1187.03 77.996 1187.89 77.6 1188.66 77.6C1189.17 76.918 1188.95 75.246 1187.03 75.246C1185.76 75.246 1184.68 76.324 1184.68 77.776C1184.68 80.372 1187.14 82.352 1190.4 82.33Z" fill="white"/>
<path d="M1163.45 121V111.586H1169.63V113.206H1165.54V115.384H1169.03V116.914H1165.54V119.38H1169.81V121H1163.45ZM1172.22 121V111.586H1174.33L1177.15 116.41L1178.22 118.534H1178.29C1178.24 118.03 1178.19 117.466 1178.13 116.842C1178.07 116.206 1178.04 115.612 1178.04 115.06V111.586H1179.94V121H1177.89L1175.01 116.176L1173.95 114.052H1173.88C1173.94 114.568 1174 115.138 1174.06 115.762C1174.12 116.374 1174.15 116.956 1174.15 117.508V121H1172.22ZM1185 121.216C1184.27 121.216 1183.65 121.072 1183.14 120.784C1182.64 120.496 1182.22 120.07 1181.88 119.506L1183.29 118.48C1183.67 119.14 1184.17 119.47 1184.78 119.47C1185.2 119.47 1185.53 119.35 1185.75 119.11C1185.98 118.87 1186.1 118.426 1186.1 117.778V111.586H1188.18V117.94C1188.18 118.384 1188.12 118.804 1187.99 119.2C1187.87 119.596 1187.67 119.944 1187.41 120.244C1187.15 120.544 1186.81 120.784 1186.4 120.964C1186.01 121.132 1185.54 121.216 1185 121.216ZM1195.06 121.216C1194.39 121.216 1193.77 121.102 1193.21 120.874C1192.66 120.646 1192.18 120.322 1191.77 119.902C1191.37 119.47 1191.06 118.948 1190.83 118.336C1190.62 117.724 1190.51 117.028 1190.51 116.248C1190.51 115.48 1190.62 114.796 1190.83 114.196C1191.06 113.584 1191.37 113.068 1191.77 112.648C1192.18 112.228 1192.66 111.91 1193.21 111.694C1193.77 111.478 1194.39 111.37 1195.06 111.37C1195.72 111.37 1196.33 111.484 1196.88 111.712C1197.44 111.928 1197.92 112.246 1198.32 112.666C1198.73 113.074 1199.04 113.584 1199.26 114.196C1199.48 114.796 1199.6 115.48 1199.6 116.248C1199.6 117.028 1199.48 117.724 1199.26 118.336C1199.04 118.948 1198.73 119.47 1198.32 119.902C1197.92 120.322 1197.44 120.646 1196.88 120.874C1196.33 121.102 1195.72 121.216 1195.06 121.216ZM1195.06 119.488C1195.79 119.488 1196.38 119.2 1196.81 118.624C1197.24 118.048 1197.46 117.256 1197.46 116.248C1197.46 115.252 1197.24 114.478 1196.81 113.926C1196.38 113.374 1195.79 113.098 1195.06 113.098C1194.31 113.098 1193.71 113.374 1193.28 113.926C1192.86 114.478 1192.65 115.252 1192.65 116.248C1192.65 117.256 1192.86 118.048 1193.28 118.624C1193.71 119.2 1194.31 119.488 1195.06 119.488ZM1203.05 121V117.616L1200.05 111.586H1202.24L1203.22 113.782C1203.35 114.13 1203.49 114.472 1203.63 114.808C1203.77 115.144 1203.92 115.492 1204.08 115.852H1204.15C1204.3 115.492 1204.44 115.144 1204.58 114.808C1204.73 114.472 1204.87 114.13 1205.02 113.782L1205.99 111.586H1208.15L1205.14 117.616V121H1203.05ZM1215.18 116.176L1214.87 117.202H1217.18L1216.87 116.176C1216.73 115.684 1216.59 115.186 1216.46 114.682C1216.32 114.166 1216.19 113.662 1216.04 113.17H1215.97C1215.84 113.674 1215.71 114.178 1215.57 114.682C1215.44 115.186 1215.31 115.684 1215.18 116.176ZM1211.63 121L1214.84 111.586H1217.27L1220.47 121H1218.29L1217.63 118.714H1214.42L1213.74 121H1211.63ZM1135.51 139V129.586H1138.3C1139.07 129.586 1139.76 129.676 1140.37 129.856C1140.99 130.036 1141.53 130.318 1141.97 130.702C1142.42 131.086 1142.76 131.572 1143 132.16C1143.24 132.748 1143.36 133.444 1143.36 134.248C1143.36 135.064 1143.24 135.772 1143 136.372C1142.76 136.96 1142.42 137.452 1141.99 137.848C1141.56 138.232 1141.04 138.52 1140.42 138.712C1139.82 138.904 1139.16 139 1138.43 139H1135.51ZM1137.6 137.38H1138.39C1139.33 137.38 1140.03 137.128 1140.5 136.624C1140.98 136.108 1141.22 135.316 1141.22 134.248C1141.22 132.22 1140.27 131.206 1138.39 131.206H1137.6V137.38ZM1145.74 139V129.586H1151.92V131.206H1147.83V133.384H1151.32V134.914H1147.83V137.38H1152.1V139H1145.74ZM1154.51 139V129.586H1156.6V137.29H1160.61V139H1154.51ZM1162.69 139V129.586H1164.77V139H1162.69ZM1171.76 139.216C1171.13 139.216 1170.53 139.114 1169.96 138.91C1169.4 138.694 1168.91 138.382 1168.49 137.974C1168.08 137.566 1167.75 137.062 1167.51 136.462C1167.27 135.85 1167.15 135.142 1167.15 134.338C1167.15 133.558 1167.28 132.862 1167.53 132.25C1167.78 131.626 1168.13 131.104 1168.56 130.684C1168.99 130.252 1169.49 129.928 1170.07 129.712C1170.65 129.484 1171.26 129.37 1171.91 129.37C1172.52 129.37 1173.08 129.49 1173.58 129.73C1174.08 129.97 1174.5 130.258 1174.84 130.594L1173.71 131.854C1173.44 131.614 1173.17 131.428 1172.9 131.296C1172.62 131.164 1172.3 131.098 1171.92 131.098C1171.16 131.098 1170.52 131.38 1170.02 131.944C1169.52 132.496 1169.28 133.27 1169.28 134.266C1169.28 135.31 1169.51 136.108 1169.96 136.66C1170.43 137.212 1171.06 137.488 1171.85 137.488C1172.28 137.488 1172.66 137.41 1172.99 137.254C1173.31 137.098 1173.6 136.888 1173.87 136.624L1175 137.848C1174.16 138.76 1173.08 139.216 1171.76 139.216ZM1176.98 139V129.586H1179.07V139H1176.98ZM1186 139.216C1185.33 139.216 1184.71 139.102 1184.15 138.874C1183.59 138.646 1183.11 138.322 1182.71 137.902C1182.31 137.47 1182 136.948 1181.77 136.336C1181.55 135.724 1181.45 135.028 1181.45 134.248C1181.45 133.48 1181.55 132.796 1181.77 132.196C1182 131.584 1182.31 131.068 1182.71 130.648C1183.11 130.228 1183.59 129.91 1184.15 129.694C1184.71 129.478 1185.33 129.37 1186 129.37C1186.66 129.37 1187.27 129.484 1187.82 129.712C1188.38 129.928 1188.86 130.246 1189.26 130.666C1189.67 131.074 1189.98 131.584 1190.19 132.196C1190.42 132.796 1190.54 133.48 1190.54 134.248C1190.54 135.028 1190.42 135.724 1190.19 136.336C1189.98 136.948 1189.67 137.47 1189.26 137.902C1188.86 138.322 1188.38 138.646 1187.82 138.874C1187.27 139.102 1186.66 139.216 1186 139.216ZM1186 137.488C1186.73 137.488 1187.31 137.2 1187.75 136.624C1188.18 136.048 1188.39 135.256 1188.39 134.248C1188.39 133.252 1188.18 132.478 1187.75 131.926C1187.31 131.374 1186.73 131.098 1186 131.098C1185.24 131.098 1184.65 131.374 1184.22 131.926C1183.8 132.478 1183.59 133.252 1183.59 134.248C1183.59 135.256 1183.8 136.048 1184.22 136.624C1184.65 137.2 1185.24 137.488 1186 137.488ZM1196.79 139.216C1196.18 139.216 1195.63 139.138 1195.14 138.982C1194.66 138.826 1194.24 138.574 1193.89 138.226C1193.56 137.878 1193.3 137.428 1193.12 136.876C1192.94 136.324 1192.85 135.652 1192.85 134.86V129.586H1194.92V134.932C1194.92 135.892 1195.09 136.558 1195.42 136.93C1195.76 137.302 1196.22 137.488 1196.81 137.488C1197.4 137.488 1197.86 137.302 1198.2 136.93C1198.53 136.558 1198.7 135.892 1198.7 134.932V129.586H1200.68V134.86C1200.68 135.652 1200.59 136.324 1200.41 136.876C1200.23 137.428 1199.97 137.878 1199.64 138.226C1199.31 138.574 1198.91 138.826 1198.43 138.982C1197.95 139.138 1197.4 139.216 1196.79 139.216ZM1206.35 139.216C1205.59 139.216 1204.89 139.09 1204.23 138.838C1203.58 138.586 1203.02 138.262 1202.55 137.866L1203.6 136.462C1204.02 136.81 1204.46 137.086 1204.93 137.29C1205.41 137.494 1205.91 137.596 1206.44 137.596C1206.93 137.596 1207.3 137.494 1207.56 137.29C1207.81 137.086 1207.93 136.822 1207.93 136.498C1207.93 136.138 1207.81 135.874 1207.56 135.706C1207.3 135.526 1206.99 135.358 1206.6 135.202L1205.5 134.77C1205.18 134.65 1204.87 134.512 1204.59 134.356C1204.3 134.2 1204.04 134.02 1203.81 133.816C1203.6 133.6 1203.42 133.36 1203.29 133.096C1203.16 132.82 1203.09 132.502 1203.09 132.142C1203.09 131.722 1203.18 131.344 1203.34 131.008C1203.51 130.66 1203.75 130.366 1204.05 130.126C1204.36 129.874 1204.73 129.682 1205.16 129.55C1205.59 129.418 1206.07 129.352 1206.58 129.352C1207.32 129.352 1207.95 129.472 1208.49 129.712C1209.03 129.952 1209.49 130.228 1209.88 130.54L1208.83 131.872C1208.51 131.62 1208.15 131.41 1207.75 131.242C1207.37 131.074 1206.97 130.99 1206.55 130.99C1206.12 130.99 1205.77 131.08 1205.52 131.26C1205.28 131.44 1205.16 131.698 1205.16 132.034C1205.16 132.322 1205.28 132.55 1205.52 132.718C1205.76 132.886 1206.09 133.054 1206.51 133.222L1207.59 133.618C1207.94 133.75 1208.26 133.888 1208.55 134.032C1208.85 134.176 1209.1 134.35 1209.32 134.554C1209.54 134.758 1209.7 135.004 1209.82 135.292C1209.96 135.568 1210.02 135.91 1210.02 136.318C1210.02 136.738 1209.94 137.122 1209.77 137.47C1209.6 137.818 1209.36 138.124 1209.05 138.388C1208.74 138.652 1208.35 138.856 1207.9 139C1207.44 139.144 1206.93 139.216 1206.35 139.216ZM1215.77 139V129.586H1217.99L1219.64 133.888L1220.25 135.616H1220.33L1220.97 133.888L1222.58 129.586H1224.77V139H1222.9V135.382C1222.9 135.154 1222.91 134.902 1222.92 134.626C1222.94 134.338 1222.97 134.044 1222.99 133.744C1223.01 133.444 1223.04 133.156 1223.06 132.88C1223.1 132.592 1223.13 132.334 1223.15 132.106H1223.08L1222.22 134.284L1220.67 138.172H1219.88L1218.31 134.284L1217.46 132.106H1217.39C1217.42 132.334 1217.44 132.592 1217.46 132.88C1217.5 133.156 1217.53 133.444 1217.55 133.744C1217.59 134.044 1217.61 134.338 1217.63 134.626C1217.65 134.902 1217.66 135.154 1217.66 135.382V139H1215.77ZM1227.76 139V129.586H1233.93V131.206H1229.85V133.384H1233.34V134.914H1229.85V137.38H1234.11V139H1227.76ZM1238.55 134.176L1238.24 135.202H1240.55L1240.24 134.176C1240.1 133.684 1239.96 133.186 1239.83 132.682C1239.69 132.166 1239.56 131.662 1239.41 131.17H1239.34C1239.21 131.674 1239.08 132.178 1238.94 132.682C1238.81 133.186 1238.68 133.684 1238.55 134.176ZM1235 139L1238.21 129.586H1240.64L1243.84 139H1241.66L1241 136.714H1237.79L1237.11 139H1235ZM1245.3 139V129.586H1247.39V137.29H1251.41V139H1245.3Z" fill="#0D2949"/>
<circle cx="946" cy="170" r="15" fill="#2B414D" stroke="#B28E6F" stroke-width="2"/>
<path d="M874.629 117.216C873.993 117.216 873.393 117.114 872.829 116.91C872.265 116.694 871.773 116.382 871.353 115.974C870.945 115.566 870.621 115.062 870.381 114.462C870.141 113.85 870.021 113.142 870.021 112.338C870.021 111.558 870.147 110.862 870.399 110.25C870.651 109.626 870.993 109.104 871.425 108.684C871.857 108.252 872.361 107.928 872.937 107.712C873.513 107.484 874.125 107.37 874.773 107.37C875.385 107.37 875.943 107.49 876.447 107.73C876.951 107.97 877.371 108.258 877.707 108.594L876.573 109.854C876.309 109.614 876.039 109.428 875.763 109.296C875.487 109.164 875.163 109.098 874.791 109.098C874.023 109.098 873.387 109.38 872.883 109.944C872.391 110.496 872.145 111.27 872.145 112.266C872.145 113.31 872.373 114.108 872.829 114.66C873.297 115.212 873.927 115.488 874.719 115.488C875.151 115.488 875.529 115.41 875.853 115.254C876.177 115.098 876.471 114.888 876.735 114.624L877.869 115.848C877.029 116.76 875.949 117.216 874.629 117.216ZM883.504 117.216C882.832 117.216 882.214 117.102 881.65 116.874C881.098 116.646 880.618 116.322 880.21 115.902C879.814 115.47 879.502 114.948 879.274 114.336C879.058 113.724 878.95 113.028 878.95 112.248C878.95 111.48 879.058 110.796 879.274 110.196C879.502 109.584 879.814 109.068 880.21 108.648C880.618 108.228 881.098 107.91 881.65 107.694C882.214 107.478 882.832 107.37 883.504 107.37C884.164 107.37 884.77 107.484 885.322 107.712C885.886 107.928 886.366 108.246 886.762 108.666C887.17 109.074 887.482 109.584 887.698 110.196C887.926 110.796 888.04 111.48 888.04 112.248C888.04 113.028 887.926 113.724 887.698 114.336C887.482 114.948 887.17 115.47 886.762 115.902C886.366 116.322 885.886 116.646 885.322 116.874C884.77 117.102 884.164 117.216 883.504 117.216ZM883.504 115.488C884.236 115.488 884.818 115.2 885.25 114.624C885.682 114.048 885.898 113.256 885.898 112.248C885.898 111.252 885.682 110.478 885.25 109.926C884.818 109.374 884.236 109.098 883.504 109.098C882.748 109.098 882.154 109.374 881.722 109.926C881.302 110.478 881.092 111.252 881.092 112.248C881.092 113.256 881.302 114.048 881.722 114.624C882.154 115.2 882.748 115.488 883.504 115.488ZM890.408 117V107.586H892.514L895.34 112.41L896.402 114.534H896.474C896.426 114.03 896.372 113.466 896.312 112.842C896.252 112.206 896.222 111.612 896.222 111.06V107.586H898.13V117H896.078L893.198 112.176L892.136 110.052H892.064C892.124 110.568 892.184 111.138 892.244 111.762C892.304 112.374 892.334 112.956 892.334 113.508V117H890.408ZM902.913 117V109.296H900.105V107.586H907.791V109.296H905.001V117H902.913ZM911.215 112.176L910.909 113.202H913.213L912.907 112.176C912.763 111.684 912.625 111.186 912.493 110.682C912.361 110.166 912.223 109.662 912.079 109.17H912.007C911.875 109.674 911.743 110.178 911.611 110.682C911.479 111.186 911.347 111.684 911.215 112.176ZM907.669 117L910.873 107.586H913.303L916.507 117H914.329L913.663 114.714H910.459L909.775 117H907.669ZM921.967 117.216C921.331 117.216 920.731 117.114 920.167 116.91C919.603 116.694 919.111 116.382 918.691 115.974C918.283 115.566 917.959 115.062 917.719 114.462C917.479 113.85 917.359 113.142 917.359 112.338C917.359 111.558 917.485 110.862 917.737 110.25C917.989 109.626 918.331 109.104 918.763 108.684C919.195 108.252 919.699 107.928 920.275 107.712C920.851 107.484 921.463 107.37 922.111 107.37C922.723 107.37 923.281 107.49 923.785 107.73C924.289 107.97 924.709 108.258 925.045 108.594L923.911 109.854C923.647 109.614 923.377 109.428 923.101 109.296C922.825 109.164 922.501 109.098 922.129 109.098C921.361 109.098 920.725 109.38 920.221 109.944C919.729 110.496 919.483 111.27 919.483 112.266C919.483 113.31 919.711 114.108 920.167 114.66C920.635 115.212 921.265 115.488 922.057 115.488C922.489 115.488 922.867 115.41 923.191 115.254C923.515 115.098 923.809 114.888 924.073 114.624L925.207 115.848C924.367 116.76 923.287 117.216 921.967 117.216ZM928.717 117V109.296H925.909V107.586H933.595V109.296H930.805V117H928.717ZM935.549 117V107.586H937.637V115.29H941.651V117H935.549ZM943.723 117V107.586H949.897V109.206H945.811V111.384H949.303V112.914H945.811V115.38H950.077V117H943.723ZM955.482 117.216C954.726 117.216 954.018 117.09 953.358 116.838C952.71 116.586 952.152 116.262 951.684 115.866L952.728 114.462C953.148 114.81 953.592 115.086 954.06 115.29C954.54 115.494 955.044 115.596 955.572 115.596C956.064 115.596 956.436 115.494 956.688 115.29C956.94 115.086 957.066 114.822 957.066 114.498C957.066 114.138 956.94 113.874 956.688 113.706C956.436 113.526 956.118 113.358 955.734 113.202L954.636 112.77C954.312 112.65 954.006 112.512 953.718 112.356C953.43 112.2 953.172 112.02 952.944 111.816C952.728 111.6 952.554 111.36 952.422 111.096C952.29 110.82 952.224 110.502 952.224 110.142C952.224 109.722 952.308 109.344 952.476 109.008C952.644 108.66 952.878 108.366 953.178 108.126C953.49 107.874 953.862 107.682 954.294 107.55C954.726 107.418 955.2 107.352 955.716 107.352C956.448 107.352 957.084 107.472 957.624 107.712C958.164 107.952 958.626 108.228 959.01 108.54L957.966 109.872C957.642 109.62 957.282 109.41 956.886 109.242C956.502 109.074 956.1 108.99 955.68 108.99C955.248 108.99 954.906 109.08 954.654 109.26C954.414 109.44 954.294 109.698 954.294 110.034C954.294 110.322 954.414 110.55 954.654 110.718C954.894 110.886 955.224 111.054 955.644 111.222L956.724 111.618C957.072 111.75 957.39 111.888 957.678 112.032C957.978 112.176 958.236 112.35 958.452 112.554C958.668 112.758 958.836 113.004 958.956 113.292C959.088 113.568 959.154 113.91 959.154 114.318C959.154 114.738 959.07 115.122 958.902 115.47C958.734 115.818 958.494 116.124 958.182 116.388C957.87 116.652 957.486 116.856 957.03 117C956.574 117.144 956.058 117.216 955.482 117.216ZM964.113 117.216C963.357 117.216 962.649 117.09 961.989 116.838C961.341 116.586 960.783 116.262 960.315 115.866L961.359 114.462C961.779 114.81 962.223 115.086 962.691 115.29C963.171 115.494 963.675 115.596 964.203 115.596C964.695 115.596 965.067 115.494 965.319 115.29C965.571 115.086 965.697 114.822 965.697 114.498C965.697 114.138 965.571 113.874 965.319 113.706C965.067 113.526 964.749 113.358 964.365 113.202L963.267 112.77C962.943 112.65 962.637 112.512 962.349 112.356C962.061 112.2 961.803 112.02 961.575 111.816C961.359 111.6 961.185 111.36 961.053 111.096C960.921 110.82 960.855 110.502 960.855 110.142C960.855 109.722 960.939 109.344 961.107 109.008C961.275 108.66 961.509 108.366 961.809 108.126C962.121 107.874 962.493 107.682 962.925 107.55C963.357 107.418 963.831 107.352 964.347 107.352C965.079 107.352 965.715 107.472 966.255 107.712C966.795 107.952 967.257 108.228 967.641 108.54L966.597 109.872C966.273 109.62 965.913 109.41 965.517 109.242C965.133 109.074 964.731 108.99 964.311 108.99C963.879 108.99 963.537 109.08 963.285 109.26C963.045 109.44 962.925 109.698 962.925 110.034C962.925 110.322 963.045 110.55 963.285 110.718C963.525 110.886 963.855 111.054 964.275 111.222L965.355 111.618C965.703 111.75 966.021 111.888 966.309 112.032C966.609 112.176 966.867 112.35 967.083 112.554C967.299 112.758 967.467 113.004 967.587 113.292C967.719 113.568 967.785 113.91 967.785 114.318C967.785 114.738 967.701 115.122 967.533 115.47C967.365 115.818 967.125 116.124 966.813 116.388C966.501 116.652 966.117 116.856 965.661 117C965.205 117.144 964.689 117.216 964.113 117.216ZM973.535 117V107.586H979.745V109.296H975.623V111.69H979.151V113.274H975.623V117H973.535ZM981.814 117V107.586H985.324C985.852 107.586 986.35 107.634 986.818 107.73C987.286 107.826 987.688 107.988 988.024 108.216C988.372 108.432 988.642 108.732 988.834 109.116C989.038 109.488 989.14 109.95 989.14 110.502C989.14 111.186 988.966 111.756 988.618 112.212C988.282 112.656 987.826 112.992 987.25 113.22L989.572 117H987.358L985.324 113.562H983.902V117H981.814ZM983.902 112.104H985.162C985.834 112.104 986.332 111.978 986.656 111.726C986.992 111.462 987.16 111.09 987.16 110.61C987.16 110.106 986.986 109.752 986.638 109.548C986.29 109.332 985.792 109.224 985.144 109.224H983.902V112.104ZM995.512 117.216C994.84 117.216 994.222 117.102 993.658 116.874C993.106 116.646 992.626 116.322 992.218 115.902C991.822 115.47 991.51 114.948 991.282 114.336C991.066 113.724 990.958 113.028 990.958 112.248C990.958 111.48 991.066 110.796 991.282 110.196C991.51 109.584 991.822 109.068 992.218 108.648C992.626 108.228 993.106 107.91 993.658 107.694C994.222 107.478 994.84 107.37 995.512 107.37C996.172 107.37 996.778 107.484 997.33 107.712C997.894 107.928 998.374 108.246 998.77 108.666C999.178 109.074 999.49 109.584 999.706 110.196C999.934 110.796 1000.05 111.48 1000.05 112.248C1000.05 113.028 999.934 113.724 999.706 114.336C999.49 114.948 999.178 115.47 998.77 115.902C998.374 116.322 997.894 116.646 997.33 116.874C996.778 117.102 996.172 117.216 995.512 117.216ZM995.512 115.488C996.244 115.488 996.826 115.2 997.258 114.624C997.69 114.048 997.906 113.256 997.906 112.248C997.906 111.252 997.69 110.478 997.258 109.926C996.826 109.374 996.244 109.098 995.512 109.098C994.756 109.098 994.162 109.374 993.73 109.926C993.31 110.478 993.1 111.252 993.1 112.248C993.1 113.256 993.31 114.048 993.73 114.624C994.162 115.2 994.756 115.488 995.512 115.488ZM1002.42 117V107.586H1004.52L1007.35 112.41L1008.41 114.534H1008.48C1008.43 114.03 1008.38 113.466 1008.32 112.842C1008.26 112.206 1008.23 111.612 1008.23 111.06V107.586H1010.14V117H1008.09L1005.21 112.176L1004.14 110.052H1004.07C1004.13 110.568 1004.19 111.138 1004.25 111.762C1004.31 112.374 1004.34 112.956 1004.34 113.508V117H1002.42ZM1014.92 117V109.296H1012.11V107.586H1019.8V109.296H1017.01V117H1014.92ZM891.893 135V125.586H894.683C895.451 125.586 896.141 125.676 896.753 125.856C897.377 126.036 897.911 126.318 898.355 126.702C898.799 127.086 899.141 127.572 899.381 128.16C899.621 128.748 899.741 129.444 899.741 130.248C899.741 131.064 899.621 131.772 899.381 132.372C899.141 132.96 898.805 133.452 898.373 133.848C897.941 134.232 897.419 134.52 896.807 134.712C896.207 134.904 895.541 135 894.809 135H891.893ZM893.981 133.38H894.773C895.709 133.38 896.411 133.128 896.879 132.624C897.359 132.108 897.599 131.316 897.599 130.248C897.599 128.22 896.657 127.206 894.773 127.206H893.981V133.38ZM906.066 135.216C905.394 135.216 904.776 135.102 904.212 134.874C903.66 134.646 903.18 134.322 902.772 133.902C902.376 133.47 902.064 132.948 901.836 132.336C901.62 131.724 901.512 131.028 901.512 130.248C901.512 129.48 901.62 128.796 901.836 128.196C902.064 127.584 902.376 127.068 902.772 126.648C903.18 126.228 903.66 125.91 904.212 125.694C904.776 125.478 905.394 125.37 906.066 125.37C906.726 125.37 907.332 125.484 907.884 125.712C908.448 125.928 908.928 126.246 909.324 126.666C909.732 127.074 910.044 127.584 910.26 128.196C910.488 128.796 910.602 129.48 910.602 130.248C910.602 131.028 910.488 131.724 910.26 132.336C910.044 132.948 909.732 133.47 909.324 133.902C908.928 134.322 908.448 134.646 907.884 134.874C907.332 135.102 906.726 135.216 906.066 135.216ZM906.066 133.488C906.798 133.488 907.38 133.2 907.812 132.624C908.244 132.048 908.46 131.256 908.46 130.248C908.46 129.252 908.244 128.478 907.812 127.926C907.38 127.374 906.798 127.098 906.066 127.098C905.31 127.098 904.716 127.374 904.284 127.926C903.864 128.478 903.654 129.252 903.654 130.248C903.654 131.256 903.864 132.048 904.284 132.624C904.716 133.2 905.31 133.488 906.066 133.488ZM916.912 135.216C916.24 135.216 915.622 135.102 915.058 134.874C914.506 134.646 914.026 134.322 913.618 133.902C913.222 133.47 912.91 132.948 912.682 132.336C912.466 131.724 912.358 131.028 912.358 130.248C912.358 129.48 912.466 128.796 912.682 128.196C912.91 127.584 913.222 127.068 913.618 126.648C914.026 126.228 914.506 125.91 915.058 125.694C915.622 125.478 916.24 125.37 916.912 125.37C917.572 125.37 918.178 125.484 918.73 125.712C919.294 125.928 919.774 126.246 920.17 126.666C920.578 127.074 920.89 127.584 921.106 128.196C921.334 128.796 921.448 129.48 921.448 130.248C921.448 131.028 921.334 131.724 921.106 132.336C920.89 132.948 920.578 133.47 920.17 133.902C919.774 134.322 919.294 134.646 918.73 134.874C918.178 135.102 917.572 135.216 916.912 135.216ZM916.912 133.488C917.644 133.488 918.226 133.2 918.658 132.624C919.09 132.048 919.306 131.256 919.306 130.248C919.306 129.252 919.09 128.478 918.658 127.926C918.226 127.374 917.644 127.098 916.912 127.098C916.156 127.098 915.562 127.374 915.13 127.926C914.71 128.478 914.5 129.252 914.5 130.248C914.5 131.256 914.71 132.048 915.13 132.624C915.562 133.2 916.156 133.488 916.912 133.488ZM923.815 135V125.586H927.325C927.853 125.586 928.351 125.634 928.819 125.73C929.287 125.826 929.689 125.988 930.025 126.216C930.373 126.432 930.643 126.732 930.835 127.116C931.039 127.488 931.141 127.95 931.141 128.502C931.141 129.186 930.967 129.756 930.619 130.212C930.283 130.656 929.827 130.992 929.251 131.22L931.573 135H929.359L927.325 131.562H925.903V135H923.815ZM925.903 130.104H927.163C927.835 130.104 928.333 129.978 928.657 129.726C928.993 129.462 929.161 129.09 929.161 128.61C929.161 128.106 928.987 127.752 928.639 127.548C928.291 127.332 927.793 127.224 927.145 127.224H925.903V130.104ZM937.175 135V125.586H939.965C940.733 125.586 941.423 125.676 942.035 125.856C942.659 126.036 943.193 126.318 943.637 126.702C944.081 127.086 944.423 127.572 944.663 128.16C944.903 128.748 945.023 129.444 945.023 130.248C945.023 131.064 944.903 131.772 944.663 132.372C944.423 132.96 944.087 133.452 943.655 133.848C943.223 134.232 942.701 134.52 942.089 134.712C941.489 134.904 940.823 135 940.091 135H937.175ZM939.263 133.38H940.055C940.991 133.38 941.693 133.128 942.161 132.624C942.641 132.108 942.881 131.316 942.881 130.248C942.881 128.22 941.939 127.206 940.055 127.206H939.263V133.38ZM947.405 135V125.586H953.579V127.206H949.493V129.384H952.985V130.914H949.493V133.38H953.759V135H947.405ZM956.177 135V125.586H958.265V133.29H962.279V135H956.177ZM964.35 135V125.586H966.438V135H964.35ZM970.925 135L967.865 125.586H970.043L971.339 130.05C971.483 130.59 971.621 131.1 971.753 131.58C971.885 132.048 972.029 132.552 972.185 133.092H972.257C972.425 132.552 972.569 132.048 972.689 131.58C972.809 131.1 972.941 130.59 973.085 130.05L974.363 125.586H976.451L973.391 135H970.925ZM977.868 135V125.586H984.042V127.206H979.956V129.384H983.448V130.914H979.956V133.38H984.222V135H977.868ZM986.64 135V125.586H990.15C990.678 125.586 991.176 125.634 991.644 125.73C992.112 125.826 992.514 125.988 992.85 126.216C993.198 126.432 993.468 126.732 993.66 127.116C993.864 127.488 993.966 127.95 993.966 128.502C993.966 129.186 993.792 129.756 993.444 130.212C993.108 130.656 992.652 130.992 992.076 131.22L994.398 135H992.184L990.15 131.562H988.728V135H986.64ZM988.728 130.104H989.988C990.66 130.104 991.158 129.978 991.482 129.726C991.818 129.462 991.986 129.09 991.986 128.61C991.986 128.106 991.812 127.752 991.464 127.548C991.116 127.332 990.618 127.224 989.97 127.224H988.728V130.104ZM997.589 135V131.616L994.583 125.586H996.779L997.751 127.782C997.883 128.13 998.021 128.472 998.165 128.808C998.309 129.144 998.459 129.492 998.615 129.852H998.687C998.831 129.492 998.975 129.144 999.119 128.808C999.263 128.472 999.407 128.13 999.551 127.782L1000.52 125.586H1002.68L999.677 131.616V135H997.589Z" fill="#0D2949"/>
</svg>
